<?xml version="1.0" encoding="utf-8"?>
<!-- Svg Vector Icons : http://www.onlinewebfonts.com/icon -->
<!DOCTYPE svg PUBLIC "-//W3C//DTD SVG 1.1//EN" "http://www.w3.org/Graphics/SVG/1.1/DTD/svg11.dtd">
<svg version="1.1" xmlns="http://www.w3.org/2000/svg" xmlns:xlink="http://www.w3.org/1999/xlink" x="0px" y="0px" viewBox="0 0 1000 1000" enable-background="new 0 0 1000 1000" xml:space="preserve">
<metadata> Svg Vector Icons : http://www.onlinewebfonts.com/icon </metadata>
<g><g><g><path d="M770.5,753.7c101.5-6.2,214.2-52.5,219.3-166.8c2-46.4-14.1-85.8-45.4-111.2c-24.1-19.5-55.5-30-93.3-31.3c0.2-10,0.3-20.1,0.3-30.4c0-17.5-14.2-31.7-31.7-31.7h-778C24.2,382.3,10,396.5,10,414c0,167.3,15.3,335.4,178.6,419.1H99H67.3v31.7c0,38.5,31.4,69.9,69.9,69.9h105.6c10,12,24.9,19.4,41.4,19.4h283.7c16.6,0,31.4-7.4,41.4-19.4h105.6c38.5,0,69.9-31.3,69.9-69.9v-31.7h-31.7h-82.5C710.8,812.6,744.4,786.7,770.5,753.7z M714.8,903H590c-1.7,10.9-10.7,19.4-22.1,19.4H284.1c-11.4,0-20.4-8.4-22.1-19.4H137.2C116,903,99,885.9,99,864.8h654C753,885.9,735.9,903,714.8,903z M586.5,832.5H274.9C73.5,775.9,41.7,624.2,41.7,414h777.9c0,21.8-0.5,42.9-1.3,63.5c7.5-0.8,15.9-1.4,25-1.4c26.4,0,57.4,5.1,81.1,24.3c16.5,13.4,35.7,38.9,33.7,85.2c-4.5,105.5-127.5,135.6-203.9,137C719.1,772.5,666.2,810.1,586.5,832.5z"/><path d="M900.8,583.1c1.1-27-9.1-35.5-12.5-38.1c-10.9-8.9-28.2-11.6-44.8-11.6c-10.8,0-21.2,1.1-29.4,2.5c-4.8,46.6-13.5,88.9-28.1,126.4C830.6,656,898.4,637.7,900.8,583.1z M832.8,618.2c3.9-16.7,7.2-34.3,9.8-53c0.3,0,0.7,0,0.9,0c15,0,22.6,2.7,24.7,4.3c0,0.3,1.2,3.8,0.9,12.3C868.4,599,852,610.5,832.8,618.2z"/><path d="M412.1,267.7c-2.1,11.3-14.1,21.5-18.1,24.3c-12.7,8.4-17.7,24.7-11.9,38.7c5,12,16.6,19.6,29.2,19.6c2.1,0,4.2-0.2,6.4-0.6c8.7-1.8,85.9-19,109.3-73.4c8.1-18.8,12.9-49.3-10.8-87.7c-37.6-60.9-36.9-61.3-2.4-84.5c12.3-8.3,17.2-23.9,11.8-37.8c-4.7-12.4-16.6-20.3-29.5-20.3c-1.5,0-3.1,0.1-4.6,0.3c-9.9,1.4-97.2,15.9-120.8,77.8c-13.8,36.6-2.1,77.7,35.1,122.3C413.8,258.3,412.5,265.3,412.1,267.7z M496.1,77.7c-54.8,36.7-49.8,58.1-6.9,127.5c53.3,86.4-77.9,113.3-77.9,113.3s58.2-37,19.7-91.3C326.3,102.5,496.1,77.7,496.1,77.7z"/></g></g><g></g><g></g><g></g><g></g><g></g><g></g><g></g><g></g><g></g><g></g><g></g><g></g><g></g><g></g><g></g></g>
</svg>