<?xml version="1.0" encoding="utf-8"?>
<!-- Svg Vector Icons : http://www.onlinewebfonts.com/icon -->
<!DOCTYPE svg PUBLIC "-//W3C//DTD SVG 1.1//EN" "http://www.w3.org/Graphics/SVG/1.1/DTD/svg11.dtd">
<svg version="1.1" xmlns="http://www.w3.org/2000/svg" xmlns:xlink="http://www.w3.org/1999/xlink" x="0px" y="0px" viewBox="0 0 1000 1000" enable-background="new 0 0 1000 1000" xml:space="preserve">
<metadata> Svg Vector Icons : http://www.onlinewebfonts.com/icon </metadata>
<g><g><path d="M764.5,104.2c-0.1-2-0.6-3.9-1.6-5.5c-0.1-0.2-0.3-0.4-0.4-0.6c-0.5-0.7-1-1.3-1.6-1.9c-0.1-0.1-0.2-0.2-0.3-0.3c-0.7-0.6-1.5-1.2-2.4-1.6c-0.1,0-0.2-0.1-0.3-0.2c-0.1-0.1-0.3-0.1-0.5-0.1c-0.7-0.3-1.4-0.5-2.2-0.7c-0.3-0.1-0.5-0.1-0.8-0.2c-0.1,0-0.2,0-0.3-0.1L613.1,76.4V61.7c0-1-0.1-1.9-0.4-2.8c1.4-2.9,2.3-6,2.3-9.4C615,18.3,551.7,10,514.3,10c-37.4,0-100.8,8.3-100.8,39.5c0,3.1,0.8,6,2,8.6L240.4,180.8c-0.2,0.1-0.4,0.3-0.5,0.5c-0.2,0.1-0.4,0.2-0.5,0.4c-0.1,0.1-0.2,0.2-0.3,0.4c-0.3,0.3-0.6,0.6-0.9,1c-0.2,0.3-0.4,0.6-0.6,0.8c-0.3,0.4-0.5,0.8-0.7,1.1c-0.2,0.3-0.3,0.6-0.5,0.9c-0.2,0.4-0.3,0.9-0.4,1.3c-0.1,0.3-0.2,0.6-0.3,0.9c-0.1,0.5-0.1,1.1-0.2,1.6c0,0.2-0.1,0.4-0.1,0.6v725.5c0,5.7,4.1,10.5,9.6,11.5l348.4,62.4c0.7,0.1,1.4,0.2,2.1,0.2c0.5,0,1-0.2,1.5-0.3c0.8,0.2,1.6,0.3,2.4,0.3c3,0,5.9-1.1,8.1-3.3L761,838.5c2.3-2.2,3.6-5.2,3.6-8.4V104.6C764.6,104.5,764.5,104.3,764.5,104.2z M514.3,33.4c46.3,0,72,10.7,76.9,16.1c-4.9,5.4-30.5,16.1-76.9,16.1c-46.3,0-72-10.7-76.9-16.1C442.3,44.1,467.9,33.4,514.3,33.4z M589.7,77.1v74.2c-1.6,5.2-26.9,18.7-75.1,18.7c-48.3,0-73.7-13.6-75.1-18.5c0-1.3-0.3-2.6-0.7-3.8V77.1C460.7,86,492,89,514.3,89C536.6,89,567.9,86,589.7,77.1z M583.8,964.3l-325-58.2V754.4c42.1,18.1,77.9-47.9,106.5-70c30.7-23.7,75.8-11.5,111.4-21.8c39.3-11.4,64.1-47.3,103.6-58.2c5.6-1.5,3.2-10.3-2.4-8.7c-32.6,8.9-54.5,33-83.1,49.4c-37.3,21.3-79,8.1-117.6,22.2c-36.8,13.4-75.7,99.5-118.4,76.9v-221c42.1,18.1,77.9-47.9,106.5-70c30.7-23.7,75.8-11.5,111.4-21.8C516,420,540.8,384,580.3,373.2c5.6-1.5,3.2-10.3-2.4-8.7c-32.6,8.9-54.5,33-83.1,49.4c-37.3,21.3-79,8.1-117.6,22.2c-36.8,13.4-75.7,99.5-118.4,76.9V203.5l325,36.4V964.3z M595.4,217.6l-316.2-35.4l136.3-95.5v64.7c0,1.9,0.5,3.6,1.3,5.2c5.7,25.2,53.4,36.8,97.9,36.8c46,0,95.3-12.4,98.2-39.4c0.2-0.8,0.3-1.6,0.3-2.5V99.9L724,113L595.4,217.6z M741.2,825.1l-130,125.6V235l130-105.8V825.1z M373,543.4l0.6,79.9l-15,5.8l-0.4-52.9l-19.4,60.6l-12.9,5l-20.7-46.6l0.4,54.5l-14.9,5.8l-0.6-79.9l20.1-7.8l21.4,50.2l20.8-66.6L373,543.4z M401,532.5l0.6,79.9l-15.5,6l-0.6-79.9L401,532.5z M469.7,572.2l0.1,13.8l-56.1,21.8l-0.6-79.9l15.5-6l0.5,66.2L469.7,572.2z M550.3,474.6l-38.4,49l38.1,31.3l-19.4,7.5L501.5,537l-10.9,14l0.2,26.9l-15.5,6l-0.6-79.9l15.5-6l0.2,33.8l36.8-48.2L550.3,474.6z"/></g><g></g><g></g><g></g><g></g><g></g><g></g><g></g><g></g><g></g><g></g><g></g><g></g><g></g><g></g><g></g></g>
</svg>