<?xml version="1.0" encoding="utf-8"?>
<!-- Svg Vector Icons : http://www.onlinewebfonts.com/icon -->
<!DOCTYPE svg PUBLIC "-//W3C//DTD SVG 1.1//EN" "http://www.w3.org/Graphics/SVG/1.1/DTD/svg11.dtd">
<svg version="1.1" xmlns="http://www.w3.org/2000/svg" xmlns:xlink="http://www.w3.org/1999/xlink" x="0px" y="0px" viewBox="0 0 1000 1000" enable-background="new 0 0 1000 1000" xml:space="preserve">
<metadata> Svg Vector Icons : http://www.onlinewebfonts.com/icon </metadata>
<g><g><g><ellipse cx="333.9" cy="380" rx="44" ry="59.2"/><path d="M429.7,474.6c22.5,9.2,50.8-7.8,63.2-38c12.4-30.2,4.3-62.2-18.3-71.5c-22.4-9.2-50.7,7.8-63.1,38C399.1,433.4,407.3,465.3,429.7,474.6z"/><path d="M238,474.6c22.4-9.3,30.6-41.2,18.2-71.5c-12.3-30.2-40.6-47.1-63.1-38c-22.6,9.2-30.7,41.2-18.3,71.5C187.3,466.8,215.6,483.8,238,474.6z"/><path d="M990,746.2l-67.1-203.5c-0.1-0.4-0.6-0.5-0.7-0.8c-7.7-59-139.1-91.1-264.1-91.1c-10.8,0-21.6,0.6-32.4,1c-17.5-78.9-35.5-160.4-25.7-239.4c0.1-0.7-0.5-1.1-0.5-1.7c4.4-5.1,7.5-10.5,7.5-16.8v-65.8c0-64.7-263.1-65.4-274.2-65.4c-11.2,0-274.3,0.7-274.3,65.4v65.8c0,6.2,3.1,11.7,7.5,16.8c0,0.7-0.6,1.1-0.5,1.7c9.7,79.4-8.4,161.3-26,240.6C21.3,534.4,2.6,618.7,12.9,703c8.2,61.7,81.1,107.8,140.9,107.8h9.8c-8.3,13.1-13.9,27.8-13.9,43.7c0,13.8,3.6,27.7,10.3,40c14.6,26.4,42.4,42.8,72.5,42.8c8.7,0,17.4-1.3,24.3-3.8c25.9-5.7,56.4-30,90.6-72h305.1c1.8,0,3.5,0.2,5.3,0.2c1.8,0,3.5-0.2,5.3-0.2h70.3c34.2,42,64.7,66.3,89.4,71.6c8.2,2.7,16.9,4.2,25.6,4.2c30.2,0,57.9-16.4,72.6-42.9c6.7-12.3,10.3-26,10.3-40c0-14.6-4.9-28.1-12-40.5C962.7,794.4,990,770.9,990,746.2z M923.8,781.6c4.7-10.5,7.9-21.6,7.9-33.3c0-13.9-3.6-27.7-10.3-40c-14.6-26.4-42.4-42.8-72.6-42.8c-8.6,0-17.2,1.3-24.2,3.7c-25.9,5.8-56.4,30-90.6,72h-96h-34.9H356.6l32.7-98.1l20.5-61.6c4,4,8.2,7.8,13.5,11.5c0,0,0,0.1,0,0.1s0,0,0.1,0c6.2,4.3,12.5,8.6,20.3,12.3c44.8,21.7,113.6,34.1,183.6,37c9.3,0.4,18.5,0.9,27.8,1c1.1,0,2.1,0.1,3.2,0.1c102.4,0,208.7-21.7,248.4-61.9L962.1,748C960.6,757.7,946.3,769.7,923.8,781.6z M903.8,854.4c0,9.4-2.2,18.4-6.8,26.6c-9.7,17.5-28.2,28.4-48.3,28.4c-5.8,0-11.4-1-18.3-3.2c-17.2-3.7-40.4-22.5-66-52c-3.6-4.2-7.2-8.2-10.9-12.8c-0.8-0.9-1.5-1.6-2.3-2.6l-4.2-5.3h-83.7h-10.7H510.8h-59.6h-117l-4.2,5.3c-31,39.1-59,63-80.4,67.8c-24.7,8.1-52.7-3.2-65.2-25.6c-4.5-8.3-6.8-17.2-6.8-26.6c0-16.4,7.3-31.9,19.9-42.5l1.5-1.3l11.4-9.4l-12.8-10.7c-2.6-2.1-3.9-5.2-6-7.7c-8.3-9.9-13.9-21.6-13.9-34.7c0-9.4,2.3-18.3,6.8-26.5c9.7-17.6,28.2-28.5,48.3-28.5c5.8,0,11.5,0.9,18.3,3.1c20,4.5,48.2,28.4,79.1,67.4l2.9,3.6l1.3,1.7h18h19.7h193.2h48.9h133l4.2-5.2c31-39,59.1-63,80.4-67.8c25-8,52.7,3.2,65.1,25.7c4.6,8.3,6.8,17.2,6.8,26.6c0,16.4-7.3,31.9-19.9,42.5L871,801.5l1.8,1.5l11.1,9.2c0.4,0.3,0.6,0.8,0.9,1.1c3.8,3.3,6.2,7.5,8.9,11.5C899.6,833.6,903.8,843.5,903.8,854.4z M658.1,478.5c147.3,0,237.7,39.9,237.7,68.5c0,28.6-90.4,68.5-237.7,68.5c-1.8,0-3.3-0.2-5.1-0.2c-9.7-0.1-18.8-0.6-27.9-1c-36.9-1.6-69.7-5.5-97.4-11.2c28.2-6.6,60.6-10.8,95.3-12.6c9.2-0.5,18.4-0.9,27.9-1c2.5-0.1,4.8-0.3,7.3-0.3c7.7,0,13.9-6.2,13.9-13.9c0-7.7-6.2-13.9-13.9-13.9c-3.7,0-7.2,0.3-10.9,0.4c-9.5,0.1-18.8,0.6-28,1c-55,3.1-105,12.1-142.2,26.3c-9.5-3.4-17.9-7-25.1-10.8c14.8-11.9,42.6-23.2,80-31.4c23.8-5.2,51.2-9.3,82.6-11.3c9-0.6,18.6-0.7,28.1-0.9c5.2-0.1,10.2-0.5,15.5-0.5c7.7,0,13.9-6.2,13.9-13.9c0-7.7-6.2-13.9-13.9-13.9c-7.1,0-13.7,0.4-20.6,0.6c-9.5,0.2-19,0.6-28.2,1.2c-68.1,4.6-125.2,18.5-160,38.8c-1.8,1.1-3.2,2.3-4.8,3.4c-5.9,3.8-11.1,7.7-15.4,11.9c-5-5.2-8.5-10.4-8.5-15.3c0-6.1,5-12.8,12.9-19.4c24.3-20.4,83.7-40.8,170-47.1c8.9-0.7,18.7-0.8,28.2-1.1C640.4,479.1,648.9,478.5,658.1,478.5z M332.7,165.6c-76,0-135.9-6.2-177.8-13.9c55.4-15.2,103.2-14.9,180-10.1c7.5-0.3,14.3-5.4,14.7-13.1c0.5-7.7-5.4-14.3-13-14.7c-96.8-6.1-152.2-5.3-232.2,25.1c-10.1-3.6-16.4-7-18.1-9.7V129c7.4-13.9,95.4-38.5,246.4-38.5c151.6,0,239.9,24.8,246.7,36.5C572.6,140.8,484.4,165.6,332.7,165.6z M86.2,193.8v-34.2c3.2,1.6,6.6,3.1,10.2,4.5c2.5,2,5.3,3.4,8.6,3.4c0.2,0,0.3-0.1,0.5-0.1c76.1,25.6,218.9,26.1,227.1,26.1c9,0,178.8-0.6,246.5-33.9l0.1,33.2c-6.8,13.9-95,38.7-246.6,38.7C181,231.5,92.9,206.6,86.2,193.8z M153.9,782.9c-46.4,0-107.2-37.3-113.3-83.4c-9.7-79.5,8.4-161.3,26-240.6c16.6-75.1,32.8-152.6,27.3-230.1c72.1,29.9,230.2,30.5,238.8,30.5c8.6,0,166.7-0.6,238.7-30.5c-5.3,75.7,9.9,151.2,26.2,224.6c-76.1,6.2-147,24-182,52.6c-24.3-23.1-57.2-37.8-82.1-37.7c-40.1,0-101.6,38.8-112.8,89.6c-2,6.4-3.2,13.1-3.2,20.2c0.1,24.9,13.8,46.3,34.1,57.6c9.4,5.2,20.3,8.1,31.8,8.1c20.4,0,38.5-9.3,50.5-23.8c7.2,8.6,16.9,14.5,27.5,18.5l-28.6,86c-28.1-31.2-53.5-50.2-74.4-54.9c-37.3-12-79.3,4.8-98.2,38.8c-6.7,12.2-10.3,26-10.3,40c0,12.3,3.6,23.8,8.7,34.7H153.9L153.9,782.9z"/></g></g><g></g><g></g><g></g><g></g><g></g><g></g><g></g><g></g><g></g><g></g><g></g><g></g><g></g><g></g><g></g></g>
</svg>