<?xml version="1.0" encoding="utf-8"?>
<!-- Svg Vector Icons : http://www.onlinewebfonts.com/icon -->
<!DOCTYPE svg PUBLIC "-//W3C//DTD SVG 1.1//EN" "http://www.w3.org/Graphics/SVG/1.1/DTD/svg11.dtd">
<svg version="1.1" xmlns="http://www.w3.org/2000/svg" xmlns:xlink="http://www.w3.org/1999/xlink" x="0px" y="0px" viewBox="0 0 1000 1000" enable-background="new 0 0 1000 1000" xml:space="preserve">
<metadata> Svg Vector Icons : http://www.onlinewebfonts.com/icon </metadata>
<g><g><path d="M832.6,588.1c-71.1-126.3-221.1-370.9-394.9-359.8C463,175.8,473.3,103.1,419,67c-59.5-39.5-97.7,17.9-113,70.6C246.6,86.3,162.4-18.4,82.5,17.3c-43.3,19.3-37.6,90.7-20,123.7c26.1,48.9,88.2,67.6,141.2,84c-32.5,9.6-67.9,27.6-54,63.1c18.8,48,91.7,37.1,137.1,24.1c-17.3,29.2-25.1,66.1-21.4,107.9c8.2,95.6,73.4,169,137.7,233.9c85.8,86.7,178.6,167.4,276.8,239.6c51.6,37.9,150.4,117,221.6,91.4C1031.4,938.4,866.9,649,832.6,588.1z M214.8,286.5c-23.5,2.8-31.3-8.3-23.4-33.5c16.1-8.2,33-13.9,50.7-17.3c9.6-2.4,8.9-16,0-18.7c-48.9-15-100.9-37.6-140.3-70.9c-26.8-22.7-37.7-80.2-5-104.3c17-12.5,48,5.3,62.6,13c56.9,29.9,97,80.3,147.8,118c6.7,4.9,18.1,0,19.6-8c6.9-36.7,34.5-117.7,84.4-72.6c42.8,38.5,5,108-20.1,143.6c-2.5,3.6-3.5,7.2-3.3,10.6c-30,4.8-55.2,16.6-74.9,34c-3-2.5-7-3.7-12.1-2.4C272,285.5,244.6,289.1,214.8,286.5z M903.6,941.1c-23.8,48.7-130.3-17.3-229-93.7c1.6-1.6,2.8-3.7,3-6.6c2.7-41.2,25.6-80.6,59.9-103.7c10.1-6.8,1.4-20.5-9.3-15.9c-45,19-68.6,66.1-70.1,113.4c-62.8-49.8-120.3-101.4-148.3-127.1c7.3-40.7,29.5-74.3,61.2-102.9c8-7.2-3.5-17.7-11.5-11.5c-34.3,26.5-55.6,61.4-63.3,101.8c-0.3-0.3-0.7-0.7-1-0.9c-14.6-13.7-29.3-27.5-43.9-41.6c15.3-69,47.4-132.2,91.7-187.5c6.5-8.1-4.9-19.6-11.5-11.5c-45.4,55.8-77.4,119.8-88.8,190.6c-16.1-15.8-32-32-47.1-48.8c1.3-32.6,5-63.9,19.9-93.9c5.8-11.6-12.1-21.5-17.1-10c-12.4,28.7-16.3,57.5-17.1,87.5c-12.2-14.4-23.7-29.1-34.4-44.5c-29.4-42.5-44.7-93.8-45.4-145.2c-1.1-76.8,61.1-110.4,126.9-124.5c3.1-0.7,5.2-2.4,6.4-4.5c137.8-5.8,261,180.9,325,278C806.3,608.7,846,684.3,877,762.8C896.1,811.1,928.6,889.8,903.6,941.1z"/><path d="M698.4,596.7c-57.2,40.6-106.7,97.5-114.5,169.5c-1.1,10.6,16,12.6,18.4,2.5c15.2-64.5,54.8-113.1,109.3-149.5C725.6,609.9,712.1,587,698.4,596.7z"/></g><g></g><g></g><g></g><g></g><g></g><g></g><g></g><g></g><g></g><g></g><g></g><g></g><g></g><g></g><g></g></g>
</svg>