<?xml version="1.0" encoding="utf-8"?>
<!-- Svg Vector Icons : http://www.onlinewebfonts.com/icon -->
<!DOCTYPE svg PUBLIC "-//W3C//DTD SVG 1.1//EN" "http://www.w3.org/Graphics/SVG/1.1/DTD/svg11.dtd">
<svg version="1.1" xmlns="http://www.w3.org/2000/svg" xmlns:xlink="http://www.w3.org/1999/xlink" x="0px" y="0px" viewBox="0 0 1000 1000" enable-background="new 0 0 1000 1000" xml:space="preserve">
<metadata> Svg Vector Icons : http://www.onlinewebfonts.com/icon </metadata>
<g><path d="M373,739.9c-52.2,0-101.4-2.3-138.4-6.6C71,714.6,11.3,637.9,10,572.5c0-159.8,157.6-230,164.2-232.9c20.6-11.6,37.1-14.1,47.1-14.1c8.8,0,14,1.9,15.9,2.7c19,7,66.9,47.5,98.3,85.6c-5.4-35.6-22.8-59.8-29.7-68c-12.1-14.6-22.9-20-26.8-20h-36.8l25.3-26c20.6-20.7,89-36.7,134-36.7c20.3,0,34.8,3.1,44.2,9.3c15.8,10.5,81.2,63.3,118.6,125.7c-8.4-54.7-43-100.9-50.3-106l-47.5-21.6l52.5-6.9c15.6-2.3,30.9-3.4,45.5-3.4c121.5,0,183.3,75.1,210.2,146.2c1.2-33.2-1.2-66.4-3-82.7l-2.9-24.9l23.4,8.9c4.7,1.8,115.3,44.2,161.3,105.5c49.3,65.6,48.7,141.7-1.2,193.9l-1.5,1.4C797.2,730.4,469.7,739.9,373,739.9z M221.3,356c-5.2,0-16.5,1.4-33.6,10.9C185,368.2,40.5,433,40.5,572.2C41.6,624.5,94,686.5,238,703c36,4.1,83.9,6.4,135,6.4c94,0,411.8-9,558-124.4c38.4-40.8,37.7-101-1.9-153.7c-29-38.7-91.3-70.5-125-85.7c2.4,37.1,3.8,105.2-13.5,144.9l-25.5,58l-3.7-63.3c-4-67.4-50.2-194.8-196.9-194.8c-3.8,0-7.8,0.1-11.8,0.3c27.1,38.3,58.6,111.5,36.3,179.3l-20.1,61.4l-9.5-63.9c-10.2-69.3-100.7-150-130.6-170.1c-1.1-0.7-7.4-4.2-27.3-4.2c-29.2,0-65.3,7.4-89.1,15.8c5.8,4.6,11.5,10.3,17,16.9c11.8,14.3,49.3,66.7,35.1,142.1l-14,74.4l-15.9-74.1c-6.3-29.3-89.1-105-108.6-112.2C225.9,356.4,224.3,356,221.3,356z"/></g>
</svg>